<svg width="195" height="72" viewBox="0 0 195 72" fill="none" xmlns="http://www.w3.org/2000/svg">
<g clip-path="url(#clip0_136_47550)">
<g clip-path="url(#clip1_136_47550)">
<path d="M171.819 12H23.4296C22.99 12 22.5557 12 22.1173 12.0024C21.7503 12.0048 21.3863 12.0118 21.0157 12.0177C20.2108 12.0272 19.4077 12.098 18.6136 12.2297C17.8205 12.3643 17.0523 12.6179 16.3349 12.9821C15.6184 13.3494 14.9637 13.8266 14.3946 14.3965C13.8224 14.9648 13.3455 15.6217 12.9822 16.3418C12.6178 17.0606 12.3652 17.8308 12.233 18.6258C12.0995 19.4199 12.0277 20.2231 12.0182 21.0282C12.007 21.3961 12.0059 21.7653 12 22.1332V49.8703C12.0059 50.243 12.007 50.6039 12.0182 50.9766C12.0277 51.7817 12.0995 52.5849 12.233 53.3789C12.3648 54.1744 12.6175 54.9451 12.9822 55.6641C13.3454 56.3819 13.8224 57.0361 14.3946 57.6012C14.9615 58.1736 15.6167 58.6512 16.3349 59.0157C17.0523 59.3808 17.8204 59.636 18.6136 59.7726C19.4079 59.9033 20.2108 59.9742 21.0157 59.9848C21.3863 59.993 21.7503 59.9976 22.1173 59.9976C22.5557 60 22.9901 60 23.4296 60H171.819C172.25 60 172.688 60 173.118 59.9976C173.484 59.9976 173.858 59.993 174.223 59.9848C175.027 59.9747 175.828 59.9038 176.621 59.7726C177.417 59.635 178.188 59.3799 178.908 59.0157C179.626 58.651 180.281 58.1735 180.847 57.6012C181.418 57.0339 181.896 56.3802 182.263 55.6641C182.625 54.9445 182.876 54.174 183.006 53.3789C183.139 52.5848 183.214 51.7818 183.228 50.9766C183.233 50.6039 183.233 50.243 183.233 49.8703C183.242 49.4344 183.242 49.0008 183.242 48.5578V23.4434C183.242 23.0039 183.242 22.568 183.233 22.1332C183.233 21.7653 183.233 21.3961 183.228 21.0282C183.214 20.2229 183.139 19.4199 183.006 18.6258C182.875 17.8312 182.625 17.061 182.263 16.3418C181.523 14.8983 180.35 13.7233 178.908 12.982C178.188 12.6187 177.417 12.3651 176.621 12.2296C175.828 12.0974 175.027 12.0264 174.223 12.0175C173.858 12.0116 173.484 12.0046 173.118 12.0023C172.688 11.9999 172.25 11.9999 171.819 11.9999V12Z" fill="#A6A6A6"/>
<path d="M22.1232 58.95C21.7579 58.95 21.4015 58.9453 21.0392 58.9371C20.2885 58.9274 19.5396 58.8619 18.7985 58.7414C18.1076 58.6223 17.4382 58.4007 16.8125 58.0839C16.1926 57.7698 15.6272 57.3579 15.1379 56.864C14.6415 56.376 14.2283 55.8099 13.9146 55.1882C13.5974 54.5625 13.3778 53.8919 13.2636 53.1996C13.1403 52.4557 13.0736 51.7036 13.0641 50.9496C13.0565 50.6965 13.0465 49.8539 13.0465 49.8539V22.1332C13.0465 22.1332 13.0571 21.3035 13.0641 21.0597C13.0733 20.307 13.1396 19.556 13.2625 18.8133C13.3769 18.1191 13.5966 17.4465 13.914 16.8187C14.2266 16.1975 14.6375 15.631 15.1309 15.1412C15.6237 14.6467 16.191 14.2327 16.8119 13.9142C17.4362 13.5985 18.1043 13.3785 18.7938 13.2615C19.5373 13.1398 20.2888 13.074 21.0421 13.0646L22.1237 13.05H173.112L174.207 13.0652C174.953 13.0741 175.698 13.1393 176.435 13.2603C177.131 13.3788 177.806 13.6003 178.438 13.9178C179.682 14.5596 180.694 15.575 181.333 16.8217C181.645 17.4451 181.861 18.1122 181.974 18.8004C182.099 19.5492 182.168 20.3061 182.183 21.065C182.186 21.4049 182.186 21.7699 182.186 22.1332C182.196 22.5832 182.196 23.0115 182.196 23.4434V48.5577C182.196 48.9937 182.196 49.4191 182.186 49.848C182.186 50.2382 182.186 50.5957 182.181 50.9636C182.167 51.709 182.099 52.4524 181.977 53.1878C181.865 53.8851 181.646 54.561 181.329 55.1918C181.013 55.8067 180.602 56.3679 180.112 56.8547C179.622 57.3512 179.056 57.7655 178.434 58.0817C177.805 58.4009 177.131 58.6233 176.435 58.7414C175.694 58.8626 174.945 58.928 174.194 58.9371C173.843 58.9453 173.475 58.95 173.118 58.95L171.819 58.9524L22.1232 58.95Z" fill="black"/>
<path d="M41.695 36.3608C41.7079 35.3592 41.9736 34.3772 42.4675 33.506C42.9614 32.6349 43.6675 31.903 44.5199 31.3783C43.9784 30.6042 43.264 29.967 42.4335 29.5176C41.6029 29.0681 40.6792 28.8187 39.7355 28.7891C37.7225 28.5776 35.771 29.9949 34.7453 29.9949C33.6996 29.9949 32.1203 28.8101 30.4196 28.8452C29.3196 28.8807 28.2475 29.201 27.3078 29.7746C26.3681 30.3483 25.5929 31.1558 25.0577 32.1186C22.7394 36.1367 24.4687 42.042 26.6895 45.2899C27.8006 46.8803 29.0991 48.6569 30.7983 48.5939C32.461 48.5248 33.082 47.5325 35.0891 47.5325C37.0775 47.5325 37.6601 48.5939 39.3938 48.5538C41.1779 48.5248 42.3021 46.9563 43.3742 45.3508C44.1725 44.2176 44.7868 42.9651 45.1943 41.6398C44.1578 41.2009 43.2732 40.4663 42.6509 39.5276C42.0286 38.5888 41.6962 37.4875 41.695 36.3608Z" fill="white"/>
<path d="M38.4204 26.6531C39.3932 25.484 39.8725 23.9814 39.7565 22.4643C38.2702 22.6206 36.8974 23.3317 35.9114 24.4559C35.4293 25.0051 35.0601 25.644 34.8249 26.3361C34.5896 27.0282 34.493 27.76 34.5404 28.4895C35.2838 28.4972 36.0192 28.3359 36.6913 28.0178C37.3634 27.6997 37.9546 27.2331 38.4204 26.6531Z" fill="white"/>
<path d="M59.225 29.642H54.7637V22.4818H55.8746V28.6195H59.225V29.642Z" fill="white"/>
<path d="M60.3476 28.1139C60.3476 27.1412 61.0711 26.5805 62.3553 26.5008L63.8174 26.4164V25.95C63.8174 25.3793 63.4405 25.057 62.7123 25.057C62.1177 25.057 61.7056 25.2756 61.5873 25.6576H60.556C60.6649 24.7295 61.537 24.1342 62.7615 24.1342C64.1148 24.1342 64.878 24.8086 64.878 25.95V29.642H63.8525V28.8826H63.7683C63.5972 29.155 63.3569 29.3771 63.0721 29.5261C62.7872 29.6752 62.468 29.7459 62.1469 29.731C61.9203 29.7546 61.6913 29.7304 61.4746 29.66C61.2579 29.5895 61.0584 29.4744 60.8889 29.3221C60.7193 29.1697 60.5836 28.9835 60.4904 28.7754C60.3971 28.5673 60.3485 28.3419 60.3476 28.1139ZM63.8174 27.6521V27.2004L62.4994 27.2848C61.756 27.3346 61.4189 27.5877 61.4189 28.0641C61.4189 28.5504 61.8403 28.8334 62.4198 28.8334C62.5896 28.8506 62.7611 28.8334 62.9241 28.7829C63.0872 28.7324 63.2384 28.6496 63.3688 28.5394C63.4992 28.4292 63.6061 28.2938 63.6832 28.1414C63.7603 27.989 63.8059 27.8226 63.8175 27.6522L63.8174 27.6521Z" fill="white"/>
<path d="M67.9885 22.8932V24.2631H69.158V25.1614H67.9885V27.9399C67.9885 28.5059 68.2214 28.7537 68.7517 28.7537C68.8875 28.7533 69.0231 28.7451 69.158 28.7291V29.6174C68.9667 29.6517 68.7728 29.6699 68.5785 29.6719C67.3938 29.6719 66.922 29.2547 66.922 28.2129V25.1613H66.0651V24.263H66.922V22.8932H67.9885Z" fill="white"/>
<path d="M70.256 28.1139C70.256 27.1412 70.9795 26.5805 72.2637 26.5008L73.7258 26.4164V25.95C73.7258 25.3793 73.3489 25.057 72.6207 25.057C72.026 25.057 71.614 25.2756 71.4957 25.6576H70.4644C70.5733 24.7295 71.4454 24.1342 72.6699 24.1342C74.0231 24.1342 74.7864 24.8086 74.7864 25.95V29.642H73.7609V28.8826H73.6766C73.5056 29.155 73.2653 29.3771 72.9805 29.5261C72.6956 29.6752 72.3764 29.7459 72.0553 29.731C71.8287 29.7546 71.5997 29.7304 71.383 29.66C71.1663 29.5895 70.9668 29.4744 70.7972 29.3221C70.6277 29.1697 70.492 28.9835 70.3987 28.7754C70.3055 28.5673 70.2569 28.3419 70.256 28.1139ZM73.7258 27.6521V27.2004L72.4077 27.2848C71.6643 27.3346 71.3271 27.5877 71.3271 28.0641C71.3271 28.5504 71.7486 28.8334 72.3281 28.8334C72.4979 28.8506 72.6694 28.8334 72.8324 28.7829C72.9955 28.7324 73.1467 28.6496 73.2771 28.5394C73.4075 28.4292 73.5144 28.2938 73.5915 28.1414C73.6686 27.989 73.7143 27.8226 73.7258 27.6522V27.6521Z" fill="white"/>
<path d="M76.1467 28.1139C76.1467 27.1412 76.8702 26.5805 78.1544 26.5008L79.6165 26.4164V25.95C79.6165 25.3793 79.2396 25.057 78.5114 25.057C77.9167 25.057 77.5047 25.2756 77.3864 25.6576H76.3551C76.464 24.7295 77.3361 24.1342 78.5606 24.1342C79.9139 24.1342 80.6771 24.8086 80.6771 25.95V29.642H79.6516V28.8826H79.5673C79.3963 29.155 79.156 29.3771 78.8712 29.5261C78.5863 29.6752 78.2671 29.7459 77.946 29.731C77.7194 29.7546 77.4904 29.7304 77.2737 29.66C77.057 29.5895 76.8575 29.4744 76.6879 29.3221C76.5184 29.1697 76.3827 28.9835 76.2894 28.7754C76.1962 28.5673 76.1476 28.3419 76.1467 28.1139ZM79.6165 27.6521V27.2004L78.2984 27.2848C77.555 27.3346 77.2178 27.5877 77.2178 28.0641C77.2178 28.5504 77.6393 28.8334 78.2188 28.8334C78.3886 28.8506 78.5601 28.8334 78.7231 28.7829C78.8862 28.7324 79.0374 28.6496 79.1678 28.5394C79.2982 28.4292 79.4051 28.2938 79.4822 28.1414C79.5593 27.989 79.605 27.8226 79.6165 27.6522V27.6521Z" fill="white"/>
<path d="M62.7159 44.5547H57.0418L55.6792 48.5824H53.2758L58.6502 33.6803H61.1472L66.5216 48.5824H64.0774L62.7159 44.5547ZM57.6295 42.6961H62.1271L59.9099 36.1588H59.8478L57.6295 42.6961Z" fill="white"/>
<path d="M78.1286 43.1508C78.1286 46.527 76.3234 48.6961 73.5993 48.6961C72.9093 48.7322 72.223 48.5731 71.6191 48.2369C71.0152 47.9008 70.518 47.4012 70.1846 46.7953H70.133V52.1766H67.9053V37.7174H70.0616V39.5244H70.1026C70.4514 38.9214 70.9569 38.4244 71.5654 38.0862C72.1739 37.748 72.8627 37.5812 73.5583 37.6037C76.313 37.6037 78.1286 39.7834 78.1286 43.1508ZM75.8388 43.1508C75.8388 40.9506 74.7033 39.5045 72.9707 39.5045C71.2686 39.5045 70.1237 40.9811 70.1237 43.1508C70.1237 45.3399 71.2686 46.8059 72.9707 46.8059C74.7033 46.8059 75.8388 45.3703 75.8388 43.1508H75.8388Z" fill="white"/>
<path d="M90.0733 43.1508C90.0733 46.527 88.2688 48.6961 85.5447 48.6961C84.8546 48.7322 84.1683 48.5731 83.5644 48.2369C82.9605 47.9008 82.4633 47.4012 82.1299 46.7953H82.0784V52.1766H79.8507V37.7174H82.007V39.5244H82.0479C82.3967 38.9214 82.9023 38.4244 83.5108 38.0862C84.1193 37.748 84.808 37.5812 85.5037 37.6037C88.2582 37.6037 90.0733 39.7834 90.0733 43.1508ZM87.7841 43.1508C87.7841 40.9506 86.6486 39.5045 84.916 39.5045C83.2139 39.5045 82.069 40.9811 82.069 43.1508C82.069 45.3399 83.2139 46.8059 84.916 46.8059C86.6486 46.8059 87.7841 45.3703 87.7841 43.1508H87.7841Z" fill="white"/>
<path d="M97.967 44.4305C98.1321 45.9082 99.5661 46.8785 101.526 46.8785C103.403 46.8785 104.754 45.9082 104.754 44.5757C104.754 43.4191 103.94 42.7265 102.01 42.2519L100.081 41.7861C97.3477 41.1252 96.0787 39.8455 96.0787 37.7689C96.0787 35.1978 98.317 33.4318 101.494 33.4318C104.641 33.4318 106.797 35.1978 106.87 37.7689H104.621C104.486 36.2818 103.258 35.3842 101.464 35.3842C99.669 35.3842 98.441 36.2924 98.441 37.6143C98.441 38.6678 99.2254 39.2877 101.144 39.7623L102.784 40.1654C105.838 40.8884 107.106 42.1171 107.106 44.2968C107.106 47.0847 104.889 48.8308 101.361 48.8308C98.0593 48.8308 95.8304 47.1257 95.6864 44.4304L97.967 44.4305Z" fill="white"/>
<path d="M111.916 35.1463V37.7174H113.98V39.4834H111.916V45.4734C111.916 46.4039 112.33 46.8375 113.237 46.8375C113.482 46.8332 113.727 46.816 113.97 46.7859V48.5414C113.562 48.6176 113.147 48.6522 112.732 48.6445C110.535 48.6445 109.678 47.8183 109.678 45.7113V39.4834H108.1V37.7174H109.678V35.1463H111.916Z" fill="white"/>
<path d="M115.174 43.1508C115.174 39.7318 117.185 37.5838 120.322 37.5838C123.468 37.5838 125.47 39.7318 125.47 43.1508C125.47 46.5785 123.479 48.7172 120.322 48.7172C117.166 48.7172 115.174 46.5785 115.174 43.1508ZM123.2 43.1508C123.2 40.8053 122.127 39.4213 120.322 39.4213C118.516 39.4213 117.443 40.8158 117.443 43.1508C117.443 45.5051 118.516 46.8785 120.322 46.8785C122.127 46.8785 123.2 45.5051 123.2 43.1508Z" fill="white"/>
<path d="M127.307 37.7174H129.432V39.5666H129.483C129.627 38.989 129.965 38.4786 130.44 38.1212C130.916 37.7637 131.5 37.581 132.094 37.6037C132.35 37.6028 132.606 37.6307 132.857 37.6869V39.7728C132.533 39.6737 132.195 39.6281 131.856 39.638C131.532 39.6249 131.21 39.6821 130.91 39.8056C130.611 39.9291 130.341 40.116 130.121 40.3536C129.9 40.5911 129.734 40.8736 129.633 41.1816C129.531 41.4897 129.498 41.816 129.535 42.1382V48.5824H127.307V37.7174Z" fill="white"/>
<path d="M143.128 45.3914C142.828 47.3637 140.91 48.7172 138.455 48.7172C135.298 48.7172 133.338 46.5996 133.338 43.2023C133.338 39.7939 135.308 37.5838 138.361 37.5838C141.364 37.5838 143.252 39.6486 143.252 42.9433V43.7074H135.587V43.8422C135.551 44.242 135.601 44.6448 135.734 45.0238C135.866 45.4028 136.077 45.7494 136.353 46.0404C136.629 46.3315 136.964 46.5604 137.335 46.712C137.706 46.8635 138.106 46.9343 138.506 46.9195C139.033 46.9689 139.561 46.8468 140.013 46.5715C140.464 46.2962 140.815 45.8823 141.013 45.3914L143.128 45.3914ZM135.597 42.1488H141.023C141.043 41.7892 140.989 41.4294 140.864 41.0919C140.738 40.7544 140.544 40.4465 140.294 40.1875C140.044 39.9285 139.744 39.7241 139.411 39.587C139.078 39.4499 138.721 39.3831 138.361 39.3908C137.999 39.3886 137.639 39.4584 137.303 39.5962C136.967 39.7339 136.662 39.9368 136.405 40.1933C136.148 40.4497 135.945 40.7545 135.806 41.0901C135.667 41.4258 135.596 41.7856 135.597 42.1488Z" fill="white"/>
<path d="M149.143 37.5943C151.547 37.5943 153.269 38.9256 153.321 40.8463H151.227C151.134 39.8866 150.319 39.2983 149.081 39.2983C147.874 39.2983 147.07 39.855 147.07 40.7022C147.07 41.3526 147.606 41.7862 148.731 42.0657L150.557 42.4899C152.744 43.0161 153.569 43.8212 153.569 45.4126C153.569 47.3743 151.713 48.7173 149.061 48.7173C146.502 48.7173 144.78 47.4048 144.615 45.422H146.822C146.977 46.4649 147.812 47.0228 149.164 47.0228C150.495 47.0228 151.331 46.4755 151.331 45.6083C151.331 44.9368 150.918 44.5759 149.783 44.2865L147.844 43.8118C145.883 43.3361 144.892 42.3341 144.892 40.8265C144.892 38.9057 146.616 37.5943 149.143 37.5943Z" fill="white"/>
<path d="M158.303 35.1463V37.7174H160.367V39.4834H158.303V45.4734C158.303 46.4039 158.716 46.8375 159.624 46.8375C159.869 46.8332 160.113 46.816 160.357 46.7859V48.5414C159.949 48.6176 159.534 48.6522 159.119 48.6445C156.922 48.6445 156.065 47.8183 156.065 45.7113V39.4834H154.487V37.7174H156.065V35.1463H158.303Z" fill="white"/>
<path d="M161.788 45.4945C161.788 43.5949 163.242 42.4477 165.821 42.2929L168.792 42.1277V41.3009C168.792 40.0927 167.999 39.4107 166.648 39.4107C166.147 39.3438 165.639 39.4623 165.219 39.7439C164.799 40.0255 164.496 40.4508 164.367 40.94H162.283C162.346 38.9772 164.171 37.5838 166.709 37.5838C169.298 37.5838 171.011 38.9983 171.011 41.1358V48.5825H168.875V46.7953H168.824C168.482 47.4013 167.984 47.9041 167.381 48.2513C166.778 48.5985 166.094 48.7772 165.399 48.7687C164.942 48.8135 164.481 48.7621 164.046 48.618C163.61 48.4738 163.209 48.2401 162.869 47.9317C162.529 47.6234 162.258 47.2473 162.071 46.8276C161.885 46.4078 161.789 45.9538 161.788 45.4945ZM168.792 44.5137V43.677L166.121 43.8422C164.79 43.9254 164.037 44.5031 164.037 45.4324C164.037 46.3828 164.821 47.0027 166.018 47.0027C166.364 47.0263 166.712 46.9801 167.04 46.867C167.368 46.7538 167.671 46.576 167.929 46.344C168.188 46.112 168.398 45.8306 168.546 45.5162C168.694 45.2019 168.778 44.861 168.792 44.5137Z" fill="white"/>
</g>
</g>
<defs>
<clipPath id="clip0_136_47550">
<rect width="171.6" height="48" fill="white" transform="translate(12 12)"/>
</clipPath>
<clipPath id="clip1_136_47550">
<rect width="171.42" height="48.0002" fill="white" transform="translate(12 12)"/>
</clipPath>
</defs>
</svg>
